<svg width="38" height="38" viewBox="0 0 28 28" fill="none" xmlns="http://www.w3.org/2000/svg">
												<circle cx="14" cy="14" r="14" fill="#EFF8FD" />
												<path d="M17.7471 11.7598H17.7531M17.7531 10.2568V8.37878M10.6266 21.5H8.53862C8.29637 21.5 8.05262 21.4655 7.82987 21.3703C7.10537 21.059 6.73712 20.6473 6.56612 20.39C6.51971 20.3188 6.49691 20.2347 6.50095 20.1498C6.50498 20.0648 6.53566 19.9833 6.58862 19.9168C7.42862 18.8008 9.37562 18.1273 10.6266 18.1273M10.6304 21.5H12.7176C12.9606 21.5 13.2036 21.4655 13.4264 21.3703C14.1516 21.059 14.5191 20.6473 14.6909 20.39C14.7373 20.3188 14.7601 20.2347 14.756 20.1498C14.752 20.0648 14.7213 19.9833 14.6684 19.9168C13.8284 18.8008 11.8814 18.1273 10.6304 18.1273M21.5001 10.094C21.5001 12.0785 19.8201 13.688 17.7471 13.688C17.5031 13.688 17.2611 13.6655 17.0211 13.6205C16.8486 13.5883 16.7631 13.5725 16.7024 13.5815C16.6424 13.5905 16.5569 13.6355 16.3874 13.727C15.9019 13.9859 15.3431 14.0728 14.8019 13.9738C15.0074 13.7203 15.1469 13.4165 15.2091 13.091C15.2466 12.8923 15.1536 12.6988 15.0141 12.557C14.3628 11.9026 13.9962 11.0174 13.9941 10.094C13.9941 8.10953 15.6741 6.50003 17.7471 6.50003C19.8201 6.50003 21.5001 8.10953 21.5001 10.094ZM12.7139 14.2168C12.7131 14.7687 12.4932 15.2977 12.1025 15.6876C11.7118 16.0774 11.1823 16.2962 10.6304 16.2958C10.357 16.2962 10.0861 16.2427 9.83339 16.1384C9.58064 16.0342 9.3509 15.8812 9.15729 15.6881C8.96368 15.495 8.80999 15.2657 8.705 15.0133C8.6 14.7608 8.54576 14.4902 8.54537 14.2168C8.54566 13.9433 8.59983 13.6726 8.70478 13.42C8.80973 13.1675 8.96341 12.9381 9.15703 12.745C9.35065 12.5518 9.58042 12.3987 9.83322 12.2944C10.086 12.1901 10.3569 12.1366 10.6304 12.137C11.1824 12.1366 11.712 12.3555 12.1027 12.7455C12.4934 13.1355 12.7133 13.6647 12.7139 14.2168Z" stroke="url(#paint0_linear_296_619)" stroke-linecap="round" stroke-linejoin="round" />
												<defs>
													<linearGradient id="paint0_linear_296_619" x1="6.46264" y1="4.60628" x2="15.2376" y2="25.7563" gradientUnits="userSpaceOnUse">
														<stop stop-color="#1198DA" />
														<stop offset="1" stop-color="#293054" />
													</linearGradient>
												</defs>
											</svg>