<svg width="28" height="28" viewBox="0 0 28 28" fill="none" xmlns="http://www.w3.org/2000/svg">
<circle cx="14" cy="14" r="14" fill="#EFF8FD"/>
<path d="M16.3512 14.375C16.2612 14.375 16.1675 14.36 16.0775 14.33C15.9084 14.2762 15.7611 14.1696 15.6571 14.0258C15.5531 13.8821 15.4981 13.7087 15.5 13.5313V12.4775C14.6525 12.3425 14 11.6038 14 10.7188V8.28128C14 7.29878 14.7987 6.50003 15.7812 6.50003H20.0937C21.0762 6.50003 21.875 7.29878 21.875 8.28128V10.7188C21.875 11.7013 21.0762 12.5 20.0937 12.5H18.1737L17.0187 14.0375C16.8537 14.255 16.61 14.375 16.3512 14.375ZM15.7812 7.43753C15.3162 7.43753 14.9375 7.81628 14.9375 8.28128V10.7188C14.9375 11.1838 15.3162 11.5625 15.7812 11.5625H16.4375V13.25L17.705 11.5625H20.0975C20.5625 11.5625 20.9412 11.1838 20.9412 10.7188V8.28128C20.9412 7.81628 20.5625 7.43753 20.0975 7.43753H15.7812ZM11 15.3125C9.4475 15.3125 8.1875 14.0525 8.1875 12.5C8.1875 10.9475 9.4475 9.68753 11 9.68753C12.5525 9.68753 13.8125 10.9475 13.8125 12.5C13.8125 14.0525 12.5525 15.3125 11 15.3125ZM11 10.625C9.965 10.625 9.125 11.465 9.125 12.5C9.125 13.535 9.965 14.375 11 14.375C12.035 14.375 12.875 13.535 12.875 12.5C12.875 11.465 12.035 10.625 11 10.625ZM6.125 18.0463C6.125 18.08 6.18125 21.5 11 21.5C15.8187 21.5 15.875 18.08 15.875 18.0463V17.6563C15.875 16.88 15.245 16.25 14.4687 16.25H7.53125C6.755 16.25 6.125 16.88 6.125 17.6563V18.0463ZM7.0625 17.6563C7.0625 17.3975 7.2725 17.1875 7.53125 17.1875H14.4687C14.7275 17.1875 14.9375 17.3975 14.9375 17.6563V18.0425C14.9375 18.1438 14.855 20.5625 11 20.5625C7.145 20.5625 7.0625 18.1438 7.0625 18.0463V17.6563Z" fill="url(#paint0_linear_296_627)"/>
<defs>
<linearGradient id="paint0_linear_296_627" x1="9.33257" y1="-5.19057" x2="37.1721" y2="12.9557" gradientUnits="userSpaceOnUse">
<stop stop-color="#1198DA"/>
<stop offset="1" stop-color="#293054"/>
</linearGradient>
</defs>
</svg>
