<svg width="28" height="28" viewBox="0 0 28 28" fill="none" xmlns="http://www.w3.org/2000/svg">
<circle cx="14" cy="14" r="14" fill="#EFF8FD"/>
<path d="M16.25 12.5L13.25 15.5L11.75 14M14 20.75C12.8181 20.7519 11.6565 20.442 10.6325 19.8515C10.5721 19.812 10.5075 19.7793 10.4398 19.754C10.3991 19.7427 10.3567 19.7384 10.3145 19.7413C10.248 19.75 10.1829 19.7677 10.121 19.7938L8.38855 20.3705H8.38705C8.0218 20.4928 7.8388 20.5543 7.7173 20.5108C7.66473 20.4921 7.61699 20.462 7.57754 20.4225C7.5381 20.3831 7.50795 20.3353 7.4893 20.2828C7.44655 20.1613 7.5073 19.979 7.6288 19.6138V19.6115L8.2063 17.882L8.2078 17.8783C8.2393 17.7815 8.2558 17.7328 8.2588 17.6863C8.26172 17.6438 8.25741 17.6012 8.24605 17.5603C8.22184 17.4937 8.18987 17.4303 8.1508 17.3713L8.14855 17.3675C7.40746 16.0801 7.11176 14.5842 7.30726 13.1116C7.50276 11.6391 8.17856 10.2721 9.2299 9.22272C10.2812 8.17328 11.6494 7.49996 13.1223 7.30713C14.5952 7.11429 16.0906 7.41271 17.3766 8.15613C18.6627 8.89954 19.6676 10.0464 20.2356 11.419C20.8036 12.7916 20.903 14.3132 20.5183 15.748C20.1336 17.1828 19.2863 18.4507 18.1079 19.355C16.9294 20.2593 15.4855 20.7497 14 20.75Z" stroke="url(#paint0_linear_296_635)" stroke-linecap="round" stroke-linejoin="round"/>
<defs>
<linearGradient id="paint0_linear_296_635" x1="7.21447" y1="5.54562" x2="15.1118" y2="24.5808" gradientUnits="userSpaceOnUse">
<stop stop-color="#1198DA"/>
<stop offset="1" stop-color="#293054"/>
</linearGradient>
</defs>
</svg>
