<svg width="38" height="38" viewBox="0 0 28 28" fill="none" xmlns="http://www.w3.org/2000/svg">
												<circle cx="14" cy="14" r="14" fill="#EFF8FD" />
												<path d="M21.7063 15.8563L20.0188 14.1688C19.7938 13.9438 19.4563 13.9438 19.2313 14.1688L14 19.4V21.875H16.475L21.7063 16.6438C21.9313 16.4188 21.9313 16.0813 21.7063 15.8563ZM16.025 20.75H15.125V19.85L17.9375 17.0375L18.8375 17.9375L16.025 20.75ZM19.625 17.15L18.725 16.25L19.625 15.35L20.525 16.25L19.625 17.15ZM10.625 17.9375H11.75V19.0625H10.625V17.9375ZM12.875 15.125H15.125V16.25H12.875V15.125ZM10.625 15.125H11.75V16.25H10.625V15.125ZM12.875 12.3125H17.375V13.4375H12.875V12.3125ZM10.625 12.3125H11.75V13.4375H10.625V12.3125Z" fill="url(#paint0_linear_296_610)" />
												<path d="M8.9375 20.75V8.93753H10.625V10.625H17.375V8.93753H19.0625V12.3125H20.1875V8.93753C20.1875 8.31878 19.6813 7.81253 19.0625 7.81253H17.375V7.25003C17.375 6.63128 16.8688 6.12503 16.25 6.12503H11.75C11.1313 6.12503 10.625 6.63128 10.625 7.25003V7.81253H8.9375C8.31875 7.81253 7.8125 8.31878 7.8125 8.93753V20.75C7.8125 21.3688 8.31875 21.875 8.9375 21.875H11.75V20.75H8.9375ZM11.75 7.25003H16.25V9.50003H11.75V7.25003Z" fill="url(#paint1_linear_296_610)" />
												<defs>
													<linearGradient id="paint0_linear_296_610" x1="12.9161" y1="4.85977" x2="31.3943" y2="18.3548" gradientUnits="userSpaceOnUse">
														<stop stop-color="#1198DA" />
														<stop offset="1" stop-color="#293054" />
													</linearGradient>
													<linearGradient id="paint1_linear_296_610" x1="10.3327" y1="-6.1501" x2="35.5103" y2="6.13033" gradientUnits="userSpaceOnUse">
														<stop stop-color="#1198DA" />
														<stop offset="1" stop-color="#293054" />
													</linearGradient>
												</defs>
											</svg>